# xmcd
#
# Track frame offsets:
#	183
#	13138
#	35223
#	63123
#	82533
#	102068
#	118208
#	140483
#	182298
#	195160
#	201513
#	213658
#	225753
#	238743
#	250078
#	265880
#	278958
#
# Disc length: 3877 seconds
#
# Revision: 1
# Processed by: cddbd v1.5.2PL0 Copyright (c) Steve Scherf et al.
# Submitted via: audiograbber 1.83.01
#
DISCID=e50f2311
DTITLE=Aretha Franklin+Etta James - Live
DYEAR=1900
DGENRE=
TTITLE0=He's All Right
TTITLE1=Yield Not To Temptation
TTITLE2=While The Blood Runs Warm
TTITLE3=This Little Light Of Mine
TTITLE4=He Will Wash You White As Snow
TTITLE5=Power
TTITLE6=The Day Is Past And Gone
TTITLE7=Jesus On The Main Line
TTITLE8=Chain Of Fools
TTITLE9=This Could Be Start Of Something
TTITLE10=Love Is The Only Thing
TTITLE11=I'm Sitting On The Top Of The World
TTITLE12=Walk On By
TTITLE13=Love For Sale
TTITLE14=What A Difference A Day Made
TTITLE15=I Apologise
TTITLE16=Respect
EXTD=
EXTT0=
EXTT1=
EXTT2=
EXTT3=
EXTT4=
EXTT5=
EXTT6=
EXTT7=
EXTT8=
EXTT9=
EXTT10=
EXTT11=
EXTT12=
EXTT13=
EXTT14=
EXTT15=
EXTT16=
PLAYORDER=
